<svg width="230" height="230" viewBox="0 0 230 230" fill="none" xmlns="http://www.w3.org/2000/svg">
<g id="bow">
<path d="M116.661 123.342C110.378 119.651 110.025 110.694 116 106.521L147.6 84.4505C154.083 79.9227 163.008 84.3546 163.318 92.2558L164.954 133.848C165.265 141.749 156.715 146.868 149.897 142.863L116.661 123.342Z" fill="#4A3143"/>
<path d="M122.586 116.847C119.519 116.215 119.35 111.898 122.357 111.027L146.128 104.144C148 103.602 149.883 104.96 149.96 106.907L150.427 118.786C150.504 120.734 148.732 122.236 146.824 121.843L122.586 116.847Z" fill="#48283F"/>
<path d="M114.506 123.427C120.48 119.254 120.128 110.297 113.844 106.606L80.6088 87.0848C73.7906 83.0801 65.2413 88.1992 65.552 96.1004L67.1875 137.692C67.4982 145.594 76.4232 150.025 82.9059 145.498L114.506 123.427Z" fill="#4A3143"/>
<path d="M108.09 117.417C111.097 116.546 110.927 112.229 107.861 111.597L83.6227 106.601C81.7141 106.208 79.9429 107.71 80.0195 109.658L80.4866 121.537C80.5632 123.484 82.4469 124.843 84.3187 124.3L108.09 117.417Z" fill="#48283F"/>
<circle cx="115.975" cy="114.192" r="18.8157" transform="rotate(-2.25194 115.975 114.192)" fill="#4A3143"/>
</g>
</svg>