<?xml version="1.0" encoding="UTF-8"?>
<svg version="1.1" xmlns="http://www.w3.org/2000/svg" width="512" height="512">
<path d="M0 0 C1.77315278 0.99298545 3.56330202 1.94823081 5.35839844 2.90087891 C31.30416344 16.89881849 53.69517068 39.9769004 63.83105469 67.98681641 C68.32078823 83.48363864 65.97712269 98.93804379 58.53417969 113.03369141 C55.43557253 118.11702734 51.67894025 122.52692195 47.74121094 126.97509766 C47.09925781 127.72662109 46.45730469 128.47814453 45.79589844 129.25244141 C34.88320253 141.76994553 23.00408125 153.95426231 9.74121094 163.97509766 C8.53253748 164.9121591 7.32423093 165.84969393 6.11621094 166.78759766 C-9.17649924 178.55837334 -25.45514452 188.52327746 -42.25878906 197.97509766 C-42.93184082 198.35827148 -43.60489258 198.74144531 -44.29833984 199.13623047 C-88.80596691 224.38607396 -147.80616401 227.70644805 -197.94628906 232.28759766 C-198.88369934 232.37504242 -199.82110962 232.46248718 -200.78692627 232.55258179 C-210.21351686 233.42095425 -219.6006545 234.12178298 -229.07128906 234.15478516 C-229.77819382 234.15839554 -230.48509857 234.16200592 -231.21342468 234.16572571 C-254.92452034 233.98795219 -275.37495918 223.30266128 -292.32128906 207.35009766 C-309.37041587 189.8459706 -316.66388369 166.26047351 -316.40722656 142.18603516 C-314.97067326 93.36677306 -303.78771864 36.82182423 -267.28613281 1.60009766 C-243.95292122 -19.25052828 -215.5381414 -24.45231586 -185.25878906 -26.02490234 C-183.43712516 -26.13607625 -181.61550768 -26.24801447 -179.79394531 -26.36083984 C-121.1535605 -29.71095078 -52.47146632 -29.4255769 0 0 Z " fill="#263F4F" transform="translate(376.2587890625,256.02490234375)"/>
<path d="M0 0 C5.06883738 4.30494217 9.96055684 8.76709564 14.7734375 13.35546875 C15.43085938 13.97164062 16.08828125 14.5878125 16.765625 15.22265625 C46.79823673 44.14807492 69.24522196 90.7649364 70.0859375 132.66796875 C69.96030374 144.27195927 65.82338456 152.07593318 57.7734375 160.35546875 C42.173225 173.63162724 21.9620631 174.66974147 2.49365234 173.18115234 C-23.28016187 170.45699246 -47.88402308 158.46221845 -69.2265625 144.35546875 C-69.92330078 143.8965625 -70.62003906 143.43765625 -71.33789062 142.96484375 C-75.05300542 140.51280062 -78.7555579 138.04282582 -82.44921875 135.55859375 C-85.7779215 133.32050742 -89.12030352 131.1048438 -92.47265625 128.90234375 C-115.49451029 113.74630728 -139.43752517 97.557188 -156.2265625 75.35546875 C-156.85304688 74.54464844 -157.47953125 73.73382813 -158.125 72.8984375 C-165.59837406 62.79796033 -172.31976972 50.25531392 -171.2265625 37.35546875 C-169.8427373 29.61069916 -167.4296219 24.20493675 -162.2265625 18.35546875 C-161.41832031 17.41703125 -160.61007813 16.47859375 -159.77734375 15.51171875 C-153.81674588 8.71138612 -147.47278535 2.8000351 -140.2265625 -2.64453125 C-139.24171875 -3.39476563 -138.256875 -4.145 -137.2421875 -4.91796875 C-95.88890363 -35.0585463 -39.69399594 -31.41051499 0 0 Z " fill="#263F4F" transform="translate(415.2265625,47.64453125)"/>
<path d="M0 0 C21.44660407 17.38978962 21.44660407 17.38978962 22.8984375 30 C23.45203301 44.30831462 15.41237946 55.26428998 6.375 65.625 C-7.3616651 80.44674621 -23.61632465 91.70378349 -40.5625 102.52734375 C-44.13900866 104.81335234 -47.65335576 107.17038574 -51.14550781 109.58251953 C-65.4963129 119.43256804 -80.57808697 126.97969193 -97.375 131.625 C-98.30957031 131.89054688 -99.24414062 132.15609375 -100.20703125 132.4296875 C-114.93935611 135.81696219 -132.29489635 135.22833165 -145.625 127.9375 C-151.6316896 124.07946725 -157.46581857 118.64762449 -159.9375 111.7578125 C-165.23386931 85.93801212 -150.41104289 54.63238917 -136.86328125 33.640625 C-120.64174547 9.61125363 -97.27538033 -10.33416862 -68.375 -16.375 C-43.48327741 -20.73873408 -19.91857338 -15.56948036 0 0 Z " fill="#263F4F" transform="translate(187.375,93.375)"/>
<path d="M0 0 C-2.22111339 6.67455792 -6.88239169 8.89647276 -12.95556641 11.99902344 C-15.82283533 13.42245292 -18.69167516 14.83793161 -21.59033203 16.1965332 C-25.03525275 17.84444611 -26.83806966 18.75710448 -29 22 C-29.77958297 27.69276863 -29.84568373 33.57819408 -26.50390625 38.4453125 C-16.33419792 48.95841358 0.82190583 50.70106635 14.39013672 53.78466797 C43.46618051 60.40985523 43.46618051 60.40985523 50.7734375 69.0234375 C53.84451805 73.97237622 54.31715359 78.82992105 54.375 84.5625 C54.40335938 85.84253906 54.43171875 87.12257813 54.4609375 88.44140625 C53.92714876 92.56243624 53.00172634 94.17205782 50 97 C46.28626748 98.37769251 42.35598607 98.1794168 38.4453125 98.203125 C37.70731415 98.20882507 36.9693158 98.21452515 36.20895386 98.22039795 C34.64387434 98.22983371 33.07877508 98.23637627 31.51367188 98.24023438 C29.16759195 98.24982587 26.82243271 98.28081243 24.4765625 98.3125 C11.01887891 98.41022815 -0.98702759 96.30316359 -13.4375 91 C-14.26958984 90.65710938 -15.10167969 90.31421875 -15.95898438 89.9609375 C-19.63219615 88.44178756 -23.28417981 86.87720699 -26.9296875 85.29296875 C-34.7535251 81.99819744 -44.8176328 81.47022562 -52.8125 84.5 C-56.39512736 86.1056113 -59.79985236 87.98610314 -63.23120117 89.89038086 C-76.65600837 97.31322449 -90.00386945 101.17524136 -105.4375 101.1875 C-106.64889648 101.20586914 -106.64889648 101.20586914 -107.88476562 101.22460938 C-114.4488446 101.24047741 -120.41429688 101.04365771 -125.7578125 96.8203125 C-128.24823475 93.68776047 -130.10787203 90.44300238 -131.875 86.875 C-134.7749508 81.21223484 -137.89363041 75.84412024 -141.45703125 70.5625 C-145.60735059 63.66981776 -146.45814678 58.44745446 -146.43359375 50.4921875 C-146.44145653 48.98847092 -146.44145653 48.98847092 -146.44947815 47.45437622 C-146.45588132 45.33808311 -146.45458353 43.22175432 -146.44604492 41.10546875 C-146.4375809 37.90558566 -146.46624703 34.70751752 -146.49804688 31.5078125 C-146.53476463 20.64868125 -146.28907983 11.12983344 -142 1 C-141.72639648 0.2467041 -141.45279297 -0.5065918 -141.17089844 -1.28271484 C-140.3125 -3.25 -140.3125 -3.25 -138 -6 C-136.14819336 -6.4675293 -136.14819336 -6.4675293 -133.96484375 -6.63671875 C-133.15748779 -6.7032666 -132.35013184 -6.76981445 -131.51831055 -6.83837891 C-130.68726807 -6.89171387 -129.85622559 -6.94504883 -129 -7 C-128.24307861 -7.05462402 -127.48615723 -7.10924805 -126.70629883 -7.16552734 C-85.72442864 -9.83572194 -39.85321456 -10.94009811 0 0 Z " fill="#1C323D" transform="translate(320,237)"/>
<path d="M0 0 C36.58205586 -1.1060644 67.89507465 9.94278717 94.84667969 35.05444336 C96.23536987 36.3651405 97.61789219 37.68236369 99 39 C99.98613281 39.92425781 99.98613281 39.92425781 100.9921875 40.8671875 C121.92914481 61.03227542 139.04044021 90.02673939 147 118 C147 119.32 147 120.64 147 122 C143.50007197 122.05869332 140.0002728 122.09382709 136.5 122.125 C135.51773438 122.14175781 134.53546875 122.15851563 133.5234375 122.17578125 C124.01321544 122.23918273 114.7641631 120.87937057 107.26953125 114.53515625 C102.87755989 109.92629741 101.56498201 105.04135514 100 99 C99.42910222 97.0109817 98.82468884 95.03128349 98.1875 93.0625 C97.91292969 92.16660156 97.63835937 91.27070312 97.35546875 90.34765625 C95.4427735 87.03489012 93.57127487 86.27091632 90 85 C86.60531922 84.77735283 86.60531922 84.77735283 83.125 85.1875 C81.89136719 85.30351563 80.65773438 85.41953125 79.38671875 85.5390625 C76.78423651 85.89326424 74.443284 86.32519042 71.9375 87.0625 C63.99716188 89.29465514 55.20246463 89.12311429 47.85546875 85.2421875 C41.08725265 80.71104493 38.42919934 73.08579916 35 66 C31.93205235 59.855001 29.38183702 55.19091851 23 52 C15.49072901 51.6496689 9.70636891 54.26624311 3.17578125 57.72265625 C-0.49308481 59.19832563 -3.07779391 59.36453445 -7 59 C-10.4375 57 -10.4375 57 -13 55 C-12.11004331 49.40598652 -12.11004331 49.40598652 -11.47583008 47.06616211 C-10.97335013 44.88428022 -10.85833598 42.928171 -10.82421875 40.69140625 C-10.43505488 25.34122073 -7.35682862 13.61013294 0 0 Z " fill="#314465" transform="translate(331,22)"/>
<path d="M0 0 C-0.99792467 2.50599917 -2.00322261 5.0077829 -3.03515625 7.5 C-3.37417969 8.325 -3.71320313 9.15 -4.0625 10 C-4.57490234 11.2375 -4.57490234 11.2375 -5.09765625 12.5 C-6.54985299 16.52340223 -7.12154242 20.39590128 -7.22460938 24.65991211 C-7.24712769 25.55532211 -7.269646 26.45073212 -7.29284668 27.37327576 C-7.36480116 31.4783261 -7.42143203 35.58321673 -7.45996094 39.6887207 C-7.48645787 41.83868825 -7.52725995 43.98853146 -7.58300781 46.13793945 C-7.92740239 59.60148525 -7.61626968 69.59522504 0 81 C0.7550967 82.28499691 1.50825427 83.57113956 2.2578125 84.859375 C2.87398438 85.81328125 3.49015625 86.7671875 4.125 87.75 C7.44682161 93.01709069 10.35434099 98.36525508 13 104 C-1.25942466 112.19916918 -20.65251112 107.86599822 -35.8046875 104.0390625 C-46.63157244 101.04178148 -57.2515732 97.28826473 -67.87768555 93.65405273 C-80.75261334 89.28977142 -93.49311444 85.73106796 -107 84 C-105.07413803 76.85718557 -102.53050894 70.2808895 -99.3125 63.625 C-98.6472229 62.24646851 -98.6472229 62.24646851 -97.96850586 60.84008789 C-85.56794561 35.60460252 -64.76665146 15.5789586 -38 6 C-25.61749428 2.23710998 -12.98458148 -0.35093463 0 0 Z " fill="#314465" transform="translate(182,231)"/>
<path d="M0 0 C0.63061523 2.08618164 0.63061523 2.08618164 1 4 C-16.93726761 17.77101215 -35.29674367 29.91718784 -55 41 C-55.67305176 41.38317383 -56.34610352 41.76634766 -57.03955078 42.16113281 C-97.68556427 65.22022508 -159.41404038 74.75138645 -206 74 C-201.26046248 67.74454104 -195.96182161 64.1425903 -189.27734375 60.18359375 C-182.13681839 55.80219805 -177.82766571 50.36225898 -173.125 43.5 C-167.02668426 35.09171618 -161.40499295 29.86939362 -151 28 C-144.64717531 27.68547129 -138.31281565 27.88617327 -131.95776367 28.06152344 C-107.07598913 28.68610173 -87.98886291 19.09591128 -67.98608398 5.08984375 C-48.26999313 -8.61901942 -21.86370962 -14.42596168 0 0 Z " fill="#1C323D" transform="translate(389,413)"/>
<path d="M0 0 C1.01771484 0.00451172 2.03542969 0.00902344 3.08398438 0.01367188 C5.57688509 0.02537563 8.06966074 0.04177152 10.5625 0.0625 C9.5725 0.7225 8.5825 1.3825 7.5625 2.0625 C8.06910156 2.98869141 8.06910156 2.98869141 8.5859375 3.93359375 C13.42946008 13.1306872 14.74152935 21.06788097 15.22167969 31.39111328 C15.39458371 35.04081418 15.7276778 38.50243177 16.5625 42.0625 C12.50882319 44.76495121 9.32819182 44.73000732 4.5625 44.0625 C2.4765625 43.1640625 2.4765625 43.1640625 0.5 42.0625 C-3.81134472 39.67111794 -6.5176711 39.34833129 -11.4375 40.0625 C-16.72810836 43.65873052 -18.96390392 47.34863085 -21.5 53.125 C-24.12367501 59.0593742 -26.37848812 63.03299406 -32.4375 66.0625 C-34.88678655 66.16105117 -37.30131376 66.20150583 -39.75 66.1875 C-41.06613281 66.19007813 -42.38226563 66.19265625 -43.73828125 66.1953125 C-46.82245114 66.08458201 -49.4433805 65.70974365 -52.4375 65.0625 C-54.28767759 64.90241371 -56.14355768 64.79905759 -58 64.75 C-58.92941406 64.71261719 -59.85882813 64.67523438 -60.81640625 64.63671875 C-64.30264268 65.20303734 -65.33481806 66.25276238 -67.4375 69.0625 C-68.55557662 72.07612946 -68.55557662 72.07612946 -69.3125 75.375 C-71.34220233 82.31176046 -73.34370535 86.77981651 -79.77734375 90.3671875 C-87.63128892 93.71174565 -97.2436232 94.79379227 -105.4375 92.0625 C-103.5676949 84.25604008 -100.98909438 77.16132101 -97.5 69.9375 C-97.01909912 68.94121582 -96.53819824 67.94493164 -96.04272461 66.91845703 C-88.73318573 52.20020284 -79.06066969 39.62064497 -67.4375 28.0625 C-66.61765625 27.24265625 -65.7978125 26.4228125 -64.953125 25.578125 C-47.06371697 8.62411085 -24.56043277 -0.207733 0 0 Z " fill="#314465" transform="translate(137.4375,75.9375)"/>
<path d="M0 0 C5.1431339 2.79518147 9.84573122 5.95741996 14.5703125 9.4140625 C20.66904807 13.39490919 26.16408887 13.35546921 33.23046875 13.47851562 C39.52636049 13.6954329 44.46189149 14.7362816 49.3125 19.0625 C53.33553886 26.06556764 54.11947081 34.96238137 52.3828125 42.77734375 C50.06072555 50.76080198 46.10729533 56.5350692 41 63 C39.55248057 64.93002591 38.11475368 66.86743974 36.6875 68.8125 C36.05199219 69.66457031 35.41648438 70.51664062 34.76171875 71.39453125 C30.74150926 77.34016258 29.52122136 81.83810859 29.3125 88.875 C29.27833984 89.65875 29.24417969 90.4425 29.20898438 91.25 C29.12719588 93.16618748 29.0619054 95.08306715 29 97 C15.67913014 91.13283036 7.40192614 74.26996015 2.21484375 61.453125 C-4.37895188 42.71063195 -5.9797515 19.03311147 0 0 Z " fill="#1C323D" transform="translate(63,372)"/>
<path d="M0 0 C1.8253125 0.0309375 1.8253125 0.0309375 3.6875 0.0625 C1.96203162 4.49599514 -0.03999007 8.76167896 -2.09375 13.05078125 C-4.94715891 20.10199366 -5.54611932 26.43004297 -5.6875 33.9375 C-6.02288745 42.9797438 -6.58851368 50.8948401 -13.5 57.4375 C-22.14165639 63.99772518 -31.66959186 65.91016525 -42.3125 65.0625 C-55.22394166 63.18151659 -67.81742272 59.74462422 -80.3125 56.0625 C-80.79525203 48.45589376 -75.29299131 44.11022859 -70.51538086 38.67529297 C-64.94776846 32.46733182 -58.9905303 27.08014572 -52.3125 22.0625 C-51.32765625 21.31226562 -50.3428125 20.56203125 -49.328125 19.7890625 C-35.86319633 9.9750722 -17.1260395 -0.29027186 0 0 Z " fill="#1C323D" transform="translate(327.3125,22.9375)"/>
<path d="M0 0 C10.06790621 1.46718231 19.54103023 4.30332787 29.1875 7.5 C30.97861206 8.08769165 30.97861206 8.08769165 32.8059082 8.68725586 C33.93601318 9.06889893 35.06611816 9.45054199 36.23046875 9.84375 C37.24520264 10.18599609 38.25993652 10.52824219 39.30541992 10.88085938 C41.91924073 11.96645823 43.83430919 13.19649397 46 15 C45.55011719 15.53625 45.10023438 16.0725 44.63671875 16.625 C40.34212754 21.85768829 36.38180271 27.22705346 32.5625 32.8125 C31.86133057 33.82957031 31.86133057 33.82957031 31.14599609 34.8671875 C28.87839768 38.17406917 26.67333883 41.49896073 24.578125 44.91796875 C24.19454834 45.52342529 23.81097168 46.12888184 23.41577148 46.75268555 C22.37838738 48.39565037 21.36979365 50.05669345 20.36328125 51.71875 C18 54 18 54 14.41015625 54.51171875 C9.17208235 54.1308343 4.16264825 52.72955511 -0.875 51.3125 C-1.80441406 51.06822266 -2.73382813 50.82394531 -3.69140625 50.57226562 C-12.38664929 48.17713243 -21.11126969 45.13785493 -27 38 C-27.8971875 36.948125 -27.8971875 36.948125 -28.8125 35.875 C-30.65443184 31.41558607 -31.03131563 26.72233999 -30 22 C-26.43117075 17.4584764 -22.17739631 15.30735447 -17.0625 12.9375 C-6.88059868 8.41350339 -6.88059868 8.41350339 0 0 Z " fill="#314465" transform="translate(320,237)"/>
<path d="M0 0 C1.28648437 -0.02578125 2.57296875 -0.0515625 3.8984375 -0.078125 C8.66563632 0.34162836 11.86549695 1.69727615 15.453125 4.86328125 C15.92234375 5.42402344 16.3915625 5.98476562 16.875 6.5625 C17.35453125 7.11550781 17.8340625 7.66851562 18.328125 8.23828125 C22.21043547 14.26053996 22.24578638 21.18013179 22.75 28.125 C22.8334668 29.23456055 22.91693359 30.34412109 23.00292969 31.48730469 C24.72523705 55.70505512 24.72523705 55.70505512 21.625 62.25 C16.92886267 61.73016491 13.71666102 59.57993858 9.9375 56.9375 C8.59931671 56.02161158 7.26075877 55.10627038 5.921875 54.19140625 C4.8709668 53.46848389 4.8709668 53.46848389 3.79882812 52.73095703 C1.61518467 51.24331314 -0.58633605 49.78717423 -2.796875 48.33984375 C-21.53104736 36.06054146 -38.99838447 22.54055726 -55.375 7.25 C-55.045 6.59 -54.715 5.93 -54.375 5.25 C-52.14610504 5.19571027 -49.91682529 5.15707662 -47.6875 5.125 C-45.82544922 5.09019531 -45.82544922 5.09019531 -43.92578125 5.0546875 C-40.50636635 5.24277413 -38.46034407 5.88912433 -35.375 7.25 C-27.59229775 8.6979446 -21.38325276 5.89910301 -14.4765625 2.66015625 C-9.46820801 0.38305805 -5.52976777 0.06622476 0 0 Z " fill="#1C323D" transform="translate(323.375,126.75)"/>
<path d="M0 0 C3.22138301 3.42271945 3.40363204 6.86141172 3.34375 11.46484375 C2.19812389 20.33042762 -2.97274027 31.11664951 -10.04296875 36.75390625 C-19.58030999 42.36128778 -32.53838246 42.1216795 -43.109375 39.984375 C-50.64816957 37.74311175 -57.52108207 34.79682926 -62 28.125 C-62.5625 24.625 -62.5625 24.625 -62 21.125 C-58.85083405 16.95698624 -56.0235017 15.31237313 -51 14.125 C-50.13246094 14.021875 -49.26492187 13.91875 -48.37109375 13.8125 C-37.90438884 12.5024561 -30.69424598 7.65451527 -22.125 1.8125 C-14.95887746 -2.99060005 -7.67796326 -4.79872703 0 0 Z " fill="#1C323D" transform="translate(264,341.875)"/>
<path d="M0 0 C18.26035675 -1.23799029 34.99384854 9.10552253 48.39550781 20.5859375 C60.43736205 31.19860027 60.43736205 31.19860027 64 38 C64 39.32 64 40.64 64 42 C30.24389014 52.3682307 30.24389014 52.3682307 17 46 C12.92603534 43.41152027 10.11224414 40.34484407 8 36 C7.68219557 33.35631712 7.49590186 30.89516915 7.4375 28.25 C6.95680424 17.49625316 4.74040802 9.6798408 0 0 Z " fill="#1C323D" transform="translate(144,77)"/>
<path d="M0 0 C10.83109139 1.76931736 19.91357292 18.32586094 26 26.6875 C33.08536814 36.62290986 38.84138083 47.29880257 44.0625 58.3125 C44.3618042 58.9408374 44.6611084 59.5691748 44.96948242 60.21655273 C46.25599212 63.01098581 47 64.88304331 47 68 C35.67337771 68.7722697 21.97715465 67.31386187 12.53515625 60.3828125 C5.76648838 54.28584449 4.07034943 46.65031099 2 38 C1.722771 36.88359131 1.722771 36.88359131 1.43994141 35.74462891 C-4.75656967 10.49161636 -4.75656967 10.49161636 -0.9765625 1.58984375 C-0.65429688 1.06519531 -0.33203125 0.54054687 0 0 Z " fill="#1C323E" transform="translate(425,59)"/>
<path d="M0 0 C6.10566736 3.42228489 11.59173876 7.71989009 17.0625 12.0625 C17.76890625 12.60132813 18.4753125 13.14015625 19.203125 13.6953125 C24.38345972 17.81705708 28.45144728 22.59986792 29.625 29.25 C28.88128087 32.96859563 27.89016987 34.51759712 25.0625 37.0625 C12.96680222 41.6505233 0.46069478 36.73071113 -10.9375 32.0625 C-19.10379413 28.36946253 -27.15502139 23.91359969 -31.9375 16.0625 C-33.18605009 12.5249414 -33.26301468 11.015793 -32.0625 7.5 C-24.35942309 -1.33588234 -10.70309235 -5.00628513 0 0 Z " fill="#1C323D" transform="translate(408.9375,170.9375)"/>
<path d="M0 0 C1.051875 0.556875 2.10375 1.11375 3.1875 1.6875 C7.65626027 3.77292146 11.3713031 3.54289897 16 2 C19.49482688 0.83505771 22.33805187 0.78873376 26 1 C26.66 1.33 27.32 1.66 28 2 C21.3588355 18.05556253 -5.06332375 30.87128571 -18.89941406 39.64453125 C-20.76467311 40.84814797 -22.58153521 42.10037316 -24.3984375 43.375 C-27 45 -27 45 -30 45 C-31.76553916 39.3093197 -30.94892327 33.25227838 -30.75 27.375 C-30.72292969 26.14136719 -30.69585937 24.90773437 -30.66796875 23.63671875 C-30.09261378 6.17191157 -30.09261378 6.17191157 -24.5625 0.5 C-23.2940625 -0.2425 -23.2940625 -0.2425 -22 -1 C-21.401875 -1.4125 -20.80375 -1.825 -20.1875 -2.25 C-13.32896791 -4.60149672 -6.51956726 -2.44071489 0 0 Z " fill="#1C323D" transform="translate(163,158)"/>
<path d="M0 0 C2.1392351 1.70114706 2.92966368 2.64538771 3.46875 5.36328125 C3.54970019 13.00295542 2.35947225 19.99906758 0.6875 27.4375 C0.47480469 28.38471924 0.26210937 29.33193848 0.04296875 30.30786133 C-1.6157305 37.26045227 -3.29637761 43.33873989 -9.1953125 47.90234375 C-16.71718362 52.47733463 -25.41879456 53.14795182 -34 53 C-33.47790582 47.28444267 -31.23048543 42.97110961 -28.5625 38 C-28.11438965 37.16130371 -27.6662793 36.32260742 -27.20458984 35.45849609 C-19.90304294 22.06849595 -10.76846612 10.76846612 0 0 Z " fill="#1C323E" transform="translate(71,103)"/>
<path d="M0 0 C1.8828125 1.3515625 1.8828125 1.3515625 3.8828125 4.3515625 C4.11705647 7.70905944 3.44922224 9.63333159 1.3671875 12.2734375 C-7.33552937 20.84328847 -20.43964511 26.39872614 -32.6171875 26.6640625 C-33.74125 26.70144531 -34.8653125 26.73882812 -36.0234375 26.77734375 C-39.75880128 26.26325959 -40.86486732 25.31344417 -43.1171875 22.3515625 C-43.8046875 19.6015625 -43.8046875 19.6015625 -43.1171875 16.3515625 C-37.16238323 7.51830299 -27.34966645 -1.05702378 -17.08203125 -4.2890625 C-10.55863518 -5.4822085 -5.52718278 -3.13913168 0 0 Z " fill="#1C323D" transform="translate(106.1171875,191.6484375)"/>
<path d="M0 0 C0.99 0 1.98 0 3 0 C2.38523129 6.27315005 1.39230257 12.33058422 0.125 18.5 C-6.68447362 53.40011409 -10.53401651 89.41363951 10.0234375 120.390625 C13.09813853 124.44971648 16.52920418 128.11900941 20.05859375 131.78515625 C22 134 22 134 22 136 C16.14658879 135.12793422 12.69664682 130.25958796 9 126 C-3.50861782 108.86592908 -9.42564949 90.02083581 -9.3125 68.875 C-9.30758545 67.75681885 -9.3026709 66.6386377 -9.29760742 65.48657227 C-8.99659346 43.41684638 -5.46095666 21.36869256 0 0 Z " fill="#344E64" transform="translate(39,336)"/>
<path d="M0 0 C0.66 0 1.32 0 2 0 C2 17.82 2 35.64 2 54 C1.01 54 0.02 54 -1 54 C-1.02526648 46.47030348 -1.04283141 38.9406178 -1.05493164 31.41088867 C-1.0599737 28.84708243 -1.06680714 26.28327909 -1.07543945 23.71948242 C-1.08751064 20.04344979 -1.09322942 16.36745502 -1.09765625 12.69140625 C-1.10281754 11.53725723 -1.10797882 10.38310822 -1.11329651 9.19398499 C-1.11337204 8.13296066 -1.11344757 7.07193634 -1.11352539 5.97875977 C-1.115746 5.03944107 -1.11796661 4.10012238 -1.12025452 3.13233948 C-1 1 -1 1 0 0 Z " fill="#354E65" transform="translate(434,412)"/>
<path d="M0 0 C0.66 0.33 1.32 0.66 2 1 C2 18.49 2 35.98 2 54 C1.01 54 0.02 54 -1 54 C-1.02526648 46.47030348 -1.04283141 38.9406178 -1.05493164 31.41088867 C-1.0599737 28.84708243 -1.06680714 26.28327909 -1.07543945 23.71948242 C-1.08751064 20.04344979 -1.09322942 16.36745502 -1.09765625 12.69140625 C-1.10281754 11.53725723 -1.10797882 10.38310822 -1.11329651 9.19398499 C-1.11337204 8.13296066 -1.11344757 7.07193634 -1.11352539 5.97875977 C-1.115746 5.03944107 -1.11796661 4.10012238 -1.12025452 3.13233948 C-1 1 -1 1 0 0 Z " fill="#364E65" transform="translate(55,28)"/>
<path d="M0 0 C0.99 0 1.98 0 3 0 C3 14.52 3 29.04 3 44 C2.01 44 1.02 44 0 44 C0 29.48 0 14.96 0 0 Z " fill="#354E65" transform="translate(424,426)"/>
<path d="M0 0 C0.99 0 1.98 0 3 0 C3 14.52 3 29.04 3 44 C2.01 44 1.02 44 0 44 C0 29.48 0 14.96 0 0 Z " fill="#364F65" transform="translate(45,42)"/>
<path d="M0 0 C0.66 0 1.32 0 2 0 C1.46216435 5.11734805 -0.35930307 9.08648713 -2.75 13.5625 C-6.37536407 20.55241058 -9.35522817 27.57429448 -12 35 C-12.99 35 -13.98 35 -15 35 C-14.37602259 29.89618478 -12.84138694 25.5780617 -10.875 20.875 C-10.41347534 19.76427124 -10.41347534 19.76427124 -9.94262695 18.63110352 C-7.18664485 12.15758757 -4.16368255 5.70171833 0 0 Z " fill="#354D65" transform="translate(60,285)"/>
<path d="M0 0 C0.99 0 1.98 0 3 0 C3 8.58 3 17.16 3 26 C2.01 26.33 1.02 26.66 0 27 C0 18.09 0 9.18 0 0 Z " fill="#354E65" transform="translate(442,436)"/>
<path d="M0 0 C0.99 0.33 1.98 0.66 3 1 C3 9.58 3 18.16 3 27 C2.01 27 1.02 27 0 27 C0 18.09 0 9.18 0 0 Z " fill="#354E64" transform="translate(63,52)"/>
<path d="M0 0 C0.99 0 1.98 0 3 0 C3 8.25 3 16.5 3 25 C2.01 25 1.02 25 0 25 C0 16.75 0 8.5 0 0 Z " fill="#364E66" transform="translate(414,448)"/>
<path d="M0 0 C0.99 0 1.98 0 3 0 C3 8.25 3 16.5 3 25 C2.01 25 1.02 25 0 25 C0 16.75 0 8.5 0 0 Z " fill="#354E65" transform="translate(35,64)"/>
</svg>
