<svg width="431" height="618" viewBox="0 0 431 618" fill="none" xmlns="http://www.w3.org/2000/svg">
<path d="M67.5706 98.6534C62.7153 84.343 74.8746 70.0244 89.7826 72.497L166.504 85.2217C181.834 87.7642 188.535 106.053 178.477 117.898L126.742 178.819C116.684 190.664 97.5507 187.015 92.558 172.299L67.5706 98.6534Z" fill="#D9D9D9"/>
<path d="M363.871 98.6534C368.727 84.343 356.567 70.0244 341.659 72.497L264.938 85.2217C249.608 87.7642 242.907 106.053 252.965 117.898L304.7 178.819C314.758 190.664 333.891 187.015 338.884 172.299L363.871 98.6534Z" fill="#D9D9D9"/>
<circle cx="217.5" cy="201.5" r="125.5" fill="#D9D9D9"/>
<path d="M113.6 144.426C119.041 133.909 126.677 125.87 133.549 120.381C137.189 117.475 136.32 110.67 131.823 109.458L110.012 103.575C106.421 102.607 102.589 103.711 100.064 106.443L95.2886 111.61C92.6691 114.444 91.9143 118.533 93.3492 122.115L102.321 144.517C104.13 149.032 111.365 148.747 113.6 144.426Z" fill="#FAEDF1"/>
<path d="M317.4 144.426C311.959 133.909 304.323 125.87 297.451 120.381C293.811 117.475 294.68 110.67 299.177 109.458L320.988 103.575C324.579 102.607 328.411 103.711 330.936 106.443L335.711 111.61C338.331 114.444 339.086 118.533 337.651 122.115L328.679 144.517C326.87 149.032 319.635 148.747 317.4 144.426Z" fill="#FAEDF1"/>
<ellipse cx="278.5" cy="173" rx="22.5" ry="28" fill="#D9D9D9"/>
<ellipse cx="278.5" cy="173" rx="22.5" ry="28" fill="#D9D9D9"/>
<path d="M79.7175 379.839C68.2725 429.314 104.451 459.804 124.368 469.096C124.652 469.228 124.931 469.324 125.235 469.398C158.825 477.617 213.296 487.855 165.812 463.83C118.173 430.839 113.52 400.215 117.148 389.028C138.655 329.084 103.846 285.097 79.1561 278.626C72.8885 276.983 66.8193 280.416 61.9013 284.635L53.9904 291.42C47.8137 296.718 50.0971 307.543 56.8577 312.072C72.8383 322.778 88.0216 343.942 79.7175 379.839Z" fill="#C0BDBD"/>
<path d="M112 486.416C112 408.451 134.271 336.165 155.232 304.281C179.686 279.166 240.778 244.006 289.513 304.281C338.247 364.556 347.373 450.818 345.845 486.416V586H112C118.55 581.632 112 557.365 112 486.416Z" fill="#CCCCCC"/>
<circle cx="217.5" cy="201.5" r="125.5" fill="#D9D9D9"/>
<path d="M183 271C188.673 264.427 203.498 255.31 218.617 269.503C219.457 270.292 220.783 270.284 221.629 269.502C228.461 263.184 242.422 256.367 254 271" stroke="#4A3143" stroke-width="4" stroke-linecap="round"/>
<path d="M164 435.327L188.127 418.807C188.93 418.257 189.773 417.766 190.647 417.339L220 403V588C220 599.046 211.046 608 200 608H184C172.954 608 164 599.046 164 588V435.327Z" fill="#D9D9D9"/>
<path d="M164 435.327L188.127 418.807C188.93 418.257 189.773 417.766 190.647 417.339L220 403V588C220 599.046 211.046 608 200 608H184C172.954 608 164 599.046 164 588V435.327Z" fill="#D9D9D9"/>
<path d="M237 403L266.464 420.897L292 441.234V588C292 599.046 283.046 608 272 608H257C245.954 608 237 599.046 237 588V403Z" fill="#D9D9D9"/>
<path d="M237 403L266.464 420.897L292 441.234V588C292 599.046 283.046 608 272 608H257C245.954 608 237 599.046 237 588V403Z" fill="#D9D9D9"/>
<ellipse cx="118" cy="515" rx="37" ry="82" fill="#D9D9D9"/>
<ellipse cx="118" cy="515" rx="37" ry="82" fill="#D9D9D9"/>
<ellipse cx="339.5" cy="515" rx="38.5" ry="82" fill="#D9D9D9"/>
<ellipse cx="339.5" cy="515" rx="38.5" ry="82" fill="#D9D9D9"/>
<path d="M101.527 590.007L115.323 574.964C117.034 573.099 119.083 571.575 121.362 570.474L147.406 557.892L151.58 560.302C162.301 566.493 164.879 580.839 156.984 590.376L148.676 600.412C142.056 608.408 130.42 610.011 121.885 604.102L101.527 590.007Z" fill="#FCFCFC"/>
<path d="M101.527 590.007L115.323 574.964C117.034 573.099 119.083 571.575 121.362 570.474L147.406 557.892L151.58 560.302C162.301 566.493 164.879 580.839 156.984 590.376L148.676 600.412C142.056 608.408 130.42 610.011 121.885 604.102L101.527 590.007Z" fill="#FCFCFC"/>
<path d="M354.283 590.041L340.488 574.999C338.777 573.133 336.727 571.609 334.448 570.508L308.405 557.926L304.231 560.337C293.509 566.528 290.931 580.874 298.826 590.41L307.135 600.447C313.754 608.443 325.391 610.045 333.925 604.136L354.283 590.041Z" fill="#FCFCFC"/>
<path d="M354.283 590.041L340.488 574.999C338.777 573.133 336.727 571.609 334.448 570.508L308.405 557.926L304.231 560.337C293.509 566.528 290.931 580.874 298.826 590.41L307.135 600.447C313.754 608.443 325.391 610.045 333.925 604.136L354.283 590.041Z" fill="#FCFCFC"/>
<path d="M164 557H190.667H220V588C220 599.046 211.046 608 200 608H184C172.954 608 164 599.046 164 588V557Z" fill="#FCFCFC"/>
<path d="M164 557H190.667H220V588C220 599.046 211.046 608 200 608H184C172.954 608 164 599.046 164 588V557Z" fill="#FCFCFC"/>
<path d="M237 557H263.19H292V588C292 599.046 283.046 608 272 608H257C245.954 608 237 599.046 237 588V557Z" fill="#FCFCFC"/>
<path d="M237 557H263.19H292V588C292 599.046 283.046 608 272 608H257C245.954 608 237 599.046 237 588V557Z" fill="#FCFCFC"/>
<path d="M157 229L179 215M201 201L179 215M179 215L201 229M179 215L157 201" stroke="black" stroke-width="3"/>
<path d="M240 229L262 215M284 201L262 215M262 215L284 229M262 215L240 201" stroke="black" stroke-width="3"/>
</svg>
