<svg width="5186" height="4947" viewBox="0 0 5186 4947" fill="none" xmlns="http://www.w3.org/2000/svg">
<path fill-rule="evenodd" clip-rule="evenodd" d="M1586.27 55.2759C1560.97 6.15621 1500.66 -13.1919 1451.57 12.0607C1402.48 37.3133 1383.2 97.604 1408.5 146.724L1443.94 215.529C1356.71 236.336 1277.35 270.396 1206.68 316.131L1154.67 215.142C1129.37 166.022 1069.07 146.675 1019.97 171.929C970.884 197.182 951.597 257.473 976.896 306.592L1051.22 450.905C914.681 606.744 834.117 824.592 821.622 1081.44C796.891 1589.79 1148.36 1999.36 1901.48 2101.73L3183 4589.88C3056.88 4607.6 2921.62 4613.48 2779.02 4607.4C1985.22 4573.56 1451.03 4077.94 1596.62 3407.11C1615.66 3319.38 1645.28 3261.39 1689.04 3203.32C1718.91 3163.66 1706.2 3105.63 1660.34 3086.62C1631.93 3074.85 1599.02 3082.25 1579.09 3105.67C1506.82 3190.63 1461.11 3262.34 1434.13 3386.64C1268.84 4148.09 1875.36 4710.66 2776.61 4749.08C2945.37 4756.28 3105.07 4748.72 3253.41 4726.58L3338.47 4891.73C3363.77 4940.85 3424.07 4960.2 3473.17 4934.95C3522.26 4909.69 3541.54 4849.4 3516.24 4800.28L3456.94 4685.14C3543.78 4662.34 3625.61 4633.71 3701.85 4599.29L3770.16 4731.91C3795.46 4781.03 3855.77 4800.38 3904.86 4775.13C3953.95 4749.88 3973.24 4689.59 3947.94 4640.47L3877.28 4503.29C4162.82 4315.54 4337.05 4022.31 4353.91 3626.8C4365.5 3388.48 3995.71 2947.58 3880.32 2824.84C3780.69 2718.86 3701.94 2609.71 3627.02 2505.85L3627.02 2505.85C3397.9 2188.27 3204.56 1920.27 2559.28 1944.39L1754.59 382.066C2215.87 430.274 2434.08 817.373 2378.39 1219.17C2372.25 1263.45 2399.72 1306.71 2443.52 1315.66C2485.87 1324.31 2527.7 1297.55 2534.5 1254.86C2617.71 732.393 2326.13 223.248 1704.03 192.984C1688.03 192.205 1672.2 191.796 1656.56 191.749L1586.27 55.2759ZM1533.47 389.359C1443.66 406.501 1364.33 441.277 1296.3 490.125L2050.65 1954.73C2138.95 1962.68 2232.57 1965.61 2331.36 1963.03C2335.35 1962.55 2339.32 1962.07 2343.28 1961.61L1533.47 389.359ZM2425.02 2120.31C2410.81 2121.8 2396.39 2123.42 2381.75 2125.2C2296.7 2127.42 2215.21 2126.6 2137.27 2122.91L3386.72 4548.8C3473.65 4525.44 3554.81 4495.38 3629.44 4458.69L2425.02 2120.31ZM3800.5 4354.23C4021.03 4188.32 4154.46 3942.37 4168.27 3618.66C4178.48 3408.7 3852.78 3020.28 3751.15 2912.14C3661.41 2816.66 3590.62 2716.74 3522.86 2621.09C3329.18 2347.7 3160.15 2109.11 2643.69 2108.26L3800.5 4354.23ZM1009.55 1083.29C1017.73 915.129 1065.66 761.642 1149.16 641.045L1806.58 1917.47C1269.78 1798.36 991.002 1464.58 1009.55 1083.29Z" fill="white"/>
<path fill-rule="evenodd" clip-rule="evenodd" d="M3981.39 1065.1C3924.94 1430.25 3607.2 1684.21 3271.7 1632.35C2936.19 1580.48 2709.96 1242.43 2766.41 877.292C2822.85 512.15 3140.59 258.188 3476.1 310.051C3811.61 361.914 4037.83 699.963 3981.39 1065.1ZM3787.5 1035.55C3748.35 1288.82 3531.53 1465.53 3303.22 1430.24C3074.91 1394.95 2921.57 1161.02 2960.72 907.742C2999.87 654.466 3216.69 477.755 3445 513.047C3673.31 548.339 3826.65 782.27 3787.5 1035.55Z" fill="white"/>
<path fill-rule="evenodd" clip-rule="evenodd" d="M1041.02 1994.18C1325.15 2230.37 1379.55 2633.47 1162.54 2894.55C945.52 3155.62 539.259 3175.79 255.127 2939.6C-29.0042 2703.42 -83.4111 2300.31 133.606 2039.24C350.623 1778.17 756.884 1758 1041.02 1994.18ZM915.589 2144.87C1023.21 2234.32 1084.01 2357.47 1092.99 2479.76C1100.46 2581.44 1072.11 2682.53 1005.07 2763.18C857.404 2940.84 577.919 2952.06 380.828 2788.25C183.736 2624.43 143.672 2347.6 291.342 2169.94C439.013 1992.27 718.498 1981.05 915.589 2144.87Z" fill="white"/>
<path fill-rule="evenodd" clip-rule="evenodd" d="M4192.04 2388.71C4477.59 2572.33 4871.08 2469.27 5070.92 2158.5C5270.77 1847.74 5201.3 1446.95 4915.76 1263.33C4630.21 1079.7 4236.73 1182.76 4036.88 1493.53C3837.03 1804.29 3906.5 2205.08 4192.04 2388.71ZM4302.65 2216.71C4496.96 2341.65 4766.85 2268.19 4905.46 2052.62C5044.07 1837.05 4998.9 1561.01 4804.58 1436.06C4610.26 1311.12 4340.37 1384.59 4201.77 1600.16C4063.16 1815.73 4108.33 2091.77 4302.65 2216.71Z" fill="white"/>
</svg>
